<svg width="42" height="52" viewBox="0 0 42 52" fill="none" xmlns="http://www.w3.org/2000/svg">
<path d="M0 3.73875C0 1.95004 1.45004 0.5 3.23875 0.5H35.2472C38.4305 0.5 40.0222 0.5 41.0111 1.48892C42 2.47785 42 4.0695 42 7.2528V26.2249H22.4862C10.0674 26.2249 0 16.1575 0 3.73875Z" fill="#2ADC8B"/>
<path d="M0 45.1972C0 48.3805 0 49.9721 0.988925 50.961C1.97785 51.95 3.5695 51.95 6.7528 51.95H38.7612C40.55 51.95 42 50.4999 42 48.7112C42 36.2924 31.9326 26.225 19.5138 26.225H0V45.1972Z" fill="#2ADC8B"/>
</svg>
