<svg width="28" height="28" viewBox="0 0 28 28" fill="none" xmlns="http://www.w3.org/2000/svg">
<g clip-path="url(#clip0_2341_35371)">
<path d="M7.45719 14.9852C7.72649 16.2722 8.16108 17.6031 7.2522 18.754C6.82919 19.2896 6.68305 19.9931 6.85776 20.6529C7.09808 21.5606 8.01343 22.1445 8.93927 21.8993L22.0331 18.4322C22.9589 18.1871 23.4653 17.2267 23.225 16.3191C23.0503 15.6593 22.5751 15.1202 21.9425 14.8641C20.5832 14.3139 20.3022 12.9423 19.8993 11.6907C18.849 8.42806 15.4287 6.55838 12.1154 7.4357C8.80209 8.31303 6.75522 11.6304 7.45719 14.9852Z" stroke="#DDDDDD" stroke-linecap="round" stroke-linejoin="round"/>
<path d="M10.3 6.09194C10.4995 6.84522 11.3621 7.63516 12.1154 7.4357C12.8687 7.23624 13.2274 6.12291 13.0279 5.36963C12.8285 4.61635 12.1464 4.50837 11.3931 4.70783C10.6398 4.90729 10.1006 5.33866 10.3 6.09194Z" stroke="#DDDDDD"/>
<path d="M18.214 19.4435C18.613 20.95 17.715 22.4947 16.2085 22.8937C14.7019 23.2926 13.1572 22.3947 12.7583 20.8881" stroke="#DDDDDD" stroke-linecap="round" stroke-linejoin="round"/>
</g>
<defs>
<clipPath id="clip0_2341_35371">
<rect width="22.5751" height="22.5751" fill="white" transform="translate(0 5.77848) rotate(-14.8309)"/>
</clipPath>
</defs>
</svg>
